HIERARCHY
ROOT Hips
{
	OFFSET 0.000000 0.000000 0.000000
	CHANNELS 6 Xposition Yposition Zposition Zrotation Yrotation Xrotation 
	JOINT LowerBack
	{
		OFFSET 0.000000 0.000000 0.000000
		CHANNELS 3 Zrotation Yrotation Xrotation
		JOINT Spine
		{
			OFFSET 0.028270 2.035590 -0.193380
			CHANNELS 3 Zrotation Yrotation Xrotation
			JOINT Spine1
			{
				OFFSET 0.056720 2.048850 -0.042750
				CHANNELS 3 Zrotation Yrotation Xrotation
				JOINT Neck
				{
					OFFSET 0.000000 0.000000 0.000000
					CHANNELS 3 Zrotation Yrotation Xrotation
					JOINT Neck1
					{
						OFFSET -0.054170 1.746240 0.172020
						CHANNELS 3 Zrotation Yrotation Xrotation
						JOINT Head
						{
							OFFSET 0.104070 1.761360 -0.123970
							CHANNELS 3 Zrotation Yrotation Xrotation
							End Site
							{
								OFFSET 0.000000 0.000000 0.000000
							}
						}
					}
				}
				JOINT LeftShoulder
				{
					OFFSET 0.000000 0.000000 0.000000
					CHANNELS 3 Zrotation Yrotation Xrotation
					JOINT LeftArm
					{
						OFFSET 3.362410 1.200890 -0.311210
						CHANNELS 3 Zrotation Yrotation Xrotation
						JOINT LeftForeArm
						{
							OFFSET 4.983000 -0.000000 -0.000000
							CHANNELS 3 Zrotation Yrotation Xrotation
							JOINT LeftHand
							{
								OFFSET 3.483560 -0.000000 -0.000000
								CHANNELS 3 Zrotation Yrotation Xrotation
								JOINT LeftFingerBase
								{
									OFFSET 0.000000 0.000000 0.000000
									CHANNELS 3 Zrotation Yrotation Xrotation
									JOINT LeftHandIndex1
									{
										OFFSET 0.715260 -0.000000 -0.000000
										CHANNELS 3 Zrotation Yrotation Xrotation
										End Site
										{
											OFFSET 0.000000 0.000000 0.000000
										}
									}
								}
								JOINT LThumb
								{
									OFFSET 0.000000 0.000000 0.000000
									CHANNELS 3 Zrotation Yrotation Xrotation
									End Site
									{
										OFFSET 0.000000 0.000000 0.000000
									}
								}
							}
						}
					}
				}
				JOINT RightShoulder
				{
					OFFSET 0.000000 0.000000 0.000000
					CHANNELS 3 Zrotation Yrotation Xrotation
					JOINT RightArm
					{
						OFFSET -3.136600 1.374050 -0.404650
						CHANNELS 3 Zrotation Yrotation Xrotation
						JOINT RightForeArm
						{
							OFFSET -5.241900 -0.000000 -0.000000
							CHANNELS 3 Zrotation Yrotation Xrotation
							JOINT RightHand
							{
								OFFSET -3.444170 -0.000000 -0.000000
								CHANNELS 3 Zrotation Yrotation Xrotation
								JOINT RightFingerBase
								{
									OFFSET 0.000000 0.000000 0.000000
									CHANNELS 3 Zrotation Yrotation Xrotation
									JOINT RightHandIndex1
									{
										OFFSET -0.622530 -0.000000 -0.000000
										CHANNELS 3 Zrotation Yrotation Xrotation
										End Site
										{
											OFFSET 0.000000 0.000000 0.000000
										}
									}
								}
								JOINT RThumb
								{
									OFFSET 0.000000 0.000000 0.000000
									CHANNELS 3 Zrotation Yrotation Xrotation
									End Site
									{
										OFFSET 0.000000 0.000000 0.000000
									}
								}
							}
						}
					}
				}
			}
		}
	}
}
}
MOTION
Frames: 6
Frame Time: 0.008333
24.786653 14.877636 2.590454 -45.632660 -83.783755 85.215629 -4.859015 0.206056 5.168454 -2.015101 0.530971 -1.953692 -6.095954 0.557151 -0.051898 11.661533 -12.084490 -9.909875 -0.987588 -0.005229 -1.104659 0.000000 0.000000 0.000000 7.922489 16.906430 2.965449 -70.801400 34.601062 19.151165 -0.501026 -80.206407 0.010459 -7.079266 5.904306 -0.369771 0.092641 0.013607 -0.000000 0.000000 0.000000 0.000000 0.000000 0.000000 0.000000 5.627719 -5.224827 -0.297661 69.910536 7.276167 23.647471 179.366511 75.640360 179.956929 -6.320129 3.838480 -0.245881 0.169825 -0.523360 -0.000000 0.000000 0.000000 0.000000 0.000000 0.000000 0.000000 
24.602391 14.859612 2.602529 -43.602545 -83.665883 82.963328 -5.224249 0.130775 5.419023 -2.112898 0.463570 -1.912373 -6.164847 0.493118 -0.141753 11.762988 -11.966274 -9.846992 -1.018351 -0.008087 -1.094692 0.000000 0.000000 0.000000 7.687647 16.548631 2.975099 -70.467591 33.974979 19.146334 -0.506203 -80.158527 0.010726 -7.013423 5.922900 -0.367255 0.091201 0.016616 -0.000000 0.000000 0.000000 0.000000 0.000000 0.000000 0.000000 5.787544 -5.114593 -0.265016 70.329449 7.066952 23.717547 179.371174 75.738930 179.958591 -6.051492 3.819225 -0.234315 0.160934 -0.523844 -0.000000 0.000000 0.000000 0.000000 0.000000 0.000000 0.000000 
24.420378 14.843319 2.615400 -41.856610 -83.556708 80.994484 -5.574579 0.060185 5.665127 -2.207523 0.398945 -1.869873 -6.231335 0.431894 -0.221719 11.844855 -11.836670 -9.758335 -1.056093 -0.011983 -1.076962 0.000000 0.000000 0.000000 7.418725 16.186830 2.976590 -70.134185 33.255012 19.101836 -0.513076 -80.079152 0.010969 -6.936450 5.933962 -0.363635 0.089287 0.019996 -0.000000 0.000000 0.000000 0.000000 0.000000 0.000000 0.000000 5.968368 -5.005493 -0.237453 70.757380 6.878255 23.789995 179.380878 75.952226 179.960309 -5.787002 3.778753 -0.221854 0.152004 -0.522845 -0.000000 0.000000 0.000000 0.000000 0.000000 0.000000 0.000000 
24.240734 14.828560 2.629092 -40.433959 -83.453460 79.360328 -5.904236 -0.005547 5.893065 -2.297402 0.337252 -1.828798 -6.295205 0.373497 -0.289638 11.907942 -11.697122 -9.646757 -1.100031 -0.016816 -1.052037 0.000000 0.000000 0.000000 7.123923 15.826629 2.970683 -69.810028 32.445716 19.009163 -0.522140 -79.959798 0.011179 -6.847715 5.935877 -0.358812 0.086834 0.023735 -0.000000 0.000000 0.000000 0.000000 0.000000 0.000000 0.000000 6.168543 -4.899307 -0.215568 71.193631 6.707291 23.865409 179.395652 76.279517 179.962089 -5.525160 3.719012 -0.208595 0.143037 -0.520417 -0.000000 0.000000 0.000000 0.000000 0.000000 0.000000 0.000000 
24.063667 14.815234 2.643507 -39.339493 -83.354175 78.074792 -6.209139 -0.067289 6.093071 -2.381304 0.277852 -1.791051 -6.356276 0.317190 -0.344481 11.953504 -11.549057 -9.516097 -1.149422 -0.022462 -1.020886 0.000000 0.000000 0.000000 6.811860 15.471186 2.958591 -69.503158 31.552087 18.860932 -0.533862 -79.792250 0.011344 -6.746177 5.928327 -0.352682 0.083782 0.027812 -0.000000 0.000000 0.000000 0.000000 0.000000 0.000000 0.000000 6.386749 -4.797459 -0.199417 71.636435 6.549210 23.941420 179.415490 76.718265 179.963921 -5.265844 3.643972 -0.194939 0.134047 -0.516690 -0.000000 0.000000 0.000000 0.000000 0.000000 0.000000 0.000000 
23.889377 14.803280 2.658501 -38.549805 -83.256829 77.122050 -6.486647 -0.126563 6.259467 -2.458382 0.219599 -1.757830 -6.414475 0.261756 -0.386461 11.983257 -11.393479 -9.370557 -1.203669 -0.028793 -0.984714 0.000000 0.000000 0.000000 6.491302 15.120676 2.941834 -69.220795 30.579446 18.650371 -0.548591 -79.570016 0.011457 -6.630270 5.911698 -0.345148 0.080093 0.032216 -0.000000 0.000000 0.000000 0.000000 0.000000 0.000000 0.000000 6.622207 -4.700592 -0.188554 72.083473 6.397606 24.013614 179.440289 77.262484 179.965774 -5.011389 3.558154 -0.181383 0.125098 -0.511849 -0.000000 0.000000 0.000000 0.000000 0.000000 0.000000 0.000000 
